<svg 
 xmlns="http://www.w3.org/2000/svg"
 xmlns:xlink="http://www.w3.org/1999/xlink"
 width="16px" height="13px">
<path fill-rule="evenodd"  fill="rgb(255, 255, 255)"
 d="M16.011,1.544 C15.422,1.806 14.789,1.982 14.125,2.061 C14.803,1.655 15.323,1.012 15.569,0.245 C14.934,0.621 14.231,0.894 13.483,1.042 C12.884,0.404 12.030,0.005 11.086,0.005 C9.272,0.005 7.802,1.475 7.802,3.288 C7.802,3.545 7.831,3.796 7.887,4.036 C5.157,3.899 2.737,2.592 1.117,0.605 C0.834,1.090 0.672,1.655 0.672,2.256 C0.672,3.395 1.252,4.400 2.133,4.989 C1.595,4.972 1.088,4.824 0.646,4.578 C0.645,4.592 0.645,4.606 0.645,4.620 C0.645,6.210 1.778,7.537 3.280,7.839 C3.005,7.914 2.714,7.954 2.415,7.954 C2.203,7.954 1.997,7.934 1.797,7.895 C2.215,9.199 3.428,10.148 4.865,10.175 C3.741,11.055 2.325,11.580 0.786,11.580 C0.521,11.580 0.259,11.565 0.002,11.534 C1.456,12.466 3.182,13.010 5.037,13.010 C11.078,13.010 14.382,8.007 14.382,3.669 C14.382,3.527 14.379,3.384 14.372,3.244 C15.014,2.781 15.571,2.203 16.011,1.544 Z"/>
</svg>