<?xml version="1.0" encoding="utf-8"?>
<!-- Generator: Adobe Illustrator 17.0.0, SVG Export Plug-In . SVG Version: 6.00 Build 0)  -->
<!DOCTYPE svg PUBLIC "-//W3C//DTD SVG 1.1//EN" "http://www.w3.org/Graphics/SVG/1.1/DTD/svg11.dtd">
<svg version="1.1" id="Layer_1" xmlns:sketch="http://www.bohemiancoding.com/sketch/ns"
	 xmlns="http://www.w3.org/2000/svg" xmlns:xlink="http://www.w3.org/1999/xlink" x="0px" y="0px" width="64px" height="54px"
	 viewBox="0 0 64 54" enable-background="new 0 0 64 54" xml:space="preserve">
<title>Crown</title>
<desc>Created with Sketch.</desc>
<g id="Page-1" sketch:type="MSPage">
	<g id="Crown" transform="translate(1.000000, 1.000000)" sketch:type="MSLayerGroup">
		<path id="Shape_5_" sketch:type="MSShapeGroup" fill="none" stroke="rgb(240, 242, 234)" stroke-width="2" stroke-linejoin="round" d="
			M16.2,13.8C10.9,9.8,0,17.1,0,27.6c0,6.5,5.9,11,11.3,17.5c-1.7,4-1.2,5.9-1.2,5.9c7,0.6,12.9,1,20.9,1c6.7,0,14.9-0.3,20.9-0.8
			c0,0,0.7-4-1.8-6.1C55.5,38.6,62,34,62,27.5C62,17,51.1,9.8,45.8,13.7"/>
		<path id="Shape" sketch:type="MSShapeGroup" fill="none" stroke="rgb(240, 242, 234)" stroke-width="2" stroke-linejoin="round" d="M31,43.3
			c0-2.8-5.7-6.5-5.7-6.5s5.7-0.4,5.7-5.5c0,5.2,5.7,5.5,5.7,5.5S31,40.4,31,43.3L31,43.3z"/>
		<path id="Shape_1_" sketch:type="MSShapeGroup" fill="none" stroke="rgb(240, 242, 234)" stroke-width="2" d="M26.1,47
			C14.2,40.4,12,26.1,12,21.9c0-14.4,22-13.3,22,1.9c0,0-0.5,3-2.9,3s-3.1-3-3.1-3c0-15.2,22-16.3,22-1.9c0,4.2-2.8,19.3-13.1,25.1"
			/>
		<path id="Shape_4_" sketch:type="MSShapeGroup" fill="none" stroke="rgb(240, 242, 234)" stroke-width="2" d="M50.1,44.9
			c-5.5,1.4-12,2.2-19.1,2.2c-7,0-14.3-0.8-19.7-2.2"/>
		<ellipse id="Oval" sketch:type="MSShapeGroup" fill="none" stroke="rgb(240, 242, 234)" stroke-width="2" cx="31" cy="4.9" rx="5" ry="4.9">
		</ellipse>
	</g>
</g>
</svg>
