<svg 
 xmlns="http://www.w3.org/2000/svg"
 xmlns:xlink="http://www.w3.org/1999/xlink"
 width="12px" height="12px">
<path fill-rule="evenodd"  fill="rgb(255, 255, 255)"
 d="M10.780,11.988 C10.099,11.988 9.547,11.436 9.547,10.755 C9.547,6.178 5.823,2.453 1.245,2.453 C0.564,2.453 0.012,1.901 0.012,1.220 C0.012,0.540 0.564,-0.013 1.245,-0.013 C7.183,-0.013 12.013,4.818 12.013,10.755 C12.013,11.436 11.461,11.988 10.780,11.988 ZM1.729,8.555 C2.677,8.555 3.445,9.323 3.445,10.271 C3.445,11.219 2.677,11.987 1.729,11.987 C0.782,11.987 0.013,11.219 0.013,10.271 C0.013,9.323 0.782,8.555 1.729,8.555 ZM0.017,5.479 C0.017,4.814 0.557,4.274 1.222,4.274 C4.811,4.274 7.731,7.194 7.731,10.783 C7.731,11.449 7.191,11.988 6.526,11.988 C5.860,11.988 5.320,11.449 5.320,10.783 C5.320,8.523 3.482,6.684 1.222,6.684 C0.557,6.684 0.017,6.145 0.017,5.479 Z"/>
</svg>