<svg 
 xmlns="http://www.w3.org/2000/svg"
 xmlns:xlink="http://www.w3.org/1999/xlink"
 width="8px" height="13px">
<path fill-rule="evenodd"  fill="rgb(255, 255, 255)"
 d="M6.639,10.740 C5.421,10.740 4.464,9.815 4.464,9.101 C4.464,8.785 4.464,7.316 4.464,5.200 L7.106,5.200 L7.106,2.655 L4.464,2.655 C4.464,0.833 4.464,0.000 4.464,0.000 C4.464,0.000 3.631,0.000 2.657,0.000 C2.657,3.015 0.004,2.761 0.004,2.761 L0.004,5.200 L1.793,5.200 C1.793,5.200 1.793,8.149 1.793,9.867 C1.793,11.586 3.418,13.014 5.394,13.014 C7.370,13.014 8.010,12.247 8.010,12.247 L8.010,9.973 C8.010,9.973 7.858,10.740 6.639,10.740 Z"/>
</svg>